<?xml version="1.0" encoding="UTF-8" standalone="no"?>
<svg
   xmlns:osb="http://www.openswatchbook.org/uri/2009/osb"
   xmlns:dc="http://purl.org/dc/elements/1.1/"
   xmlns:cc="http://creativecommons.org/ns#"
   xmlns:rdf="http://www.w3.org/1999/02/22-rdf-syntax-ns#"
   xmlns:svg="http://www.w3.org/2000/svg"
   xmlns="http://www.w3.org/2000/svg"
   xmlns:xlink="http://www.w3.org/1999/xlink"
   xmlns:sodipodi="http://sodipodi.sourceforge.net/DTD/sodipodi-0.dtd"
   xmlns:inkscape="http://www.inkscape.org/namespaces/inkscape"
   width="944.8819"
   height="944.8819"
   viewBox="0 0 250 250"
   version="1.1"
   id="svg16"
   inkscape:version="1.0.1 (c497b03c, 2020-09-10)"
   sodipodi:docname="icone2.svg"
   inkscape:export-filename="/Users/lucasferreira/Projetos/react-native/carteira/assets/pig_solo2.png"
   inkscape:export-xdpi="51.900002"
   inkscape:export-ydpi="51.900002">
  <defs
     id="defs10">
    <rect
       x="349.33287"
       y="124.20724"
       width="67.749405"
       height="49.400608"
       id="rect49" />
    <linearGradient
       inkscape:collect="always"
       id="linearGradient3453">
      <stop
         style="stop-color:#d35400;stop-opacity:1;"
         offset="0"
         id="stop3449" />
      <stop
         style="stop-color:#d35400;stop-opacity:0;"
         offset="1"
         id="stop3451" />
    </linearGradient>
    <linearGradient
       id="linearGradient3429"
       osb:paint="solid">
      <stop
         style="stop-color:#d35400;stop-opacity:1;"
         offset="0"
         id="stop3427" />
    </linearGradient>
    <linearGradient
       inkscape:collect="always"
       xlink:href="#linearGradient3453"
       id="linearGradient3457"
       x1="87.085732"
       y1="122.56999"
       x2="166.24919"
       y2="122.56999"
       gradientUnits="userSpaceOnUse" />
  </defs>
  <sodipodi:namedview
     id="base"
     pagecolor="#ffffff"
     bordercolor="#666666"
     borderopacity="1.0"
     inkscape:pageopacity="0.0"
     inkscape:pageshadow="2"
     inkscape:zoom="0.37491104"
     inkscape:cx="745.31438"
     inkscape:cy="554.67829"
     inkscape:document-units="mm"
     inkscape:current-layer="layer1"
     inkscape:document-rotation="0"
     showgrid="false"
     units="px"
     inkscape:window-width="2560"
     inkscape:window-height="1080"
     inkscape:window-x="0"
     inkscape:window-y="0"
     inkscape:window-maximized="0" />
  <metadata
     id="metadata13">
    <rdf:RDF>
      <cc:Work
         rdf:about="">
        <dc:format>image/svg+xml</dc:format>
        <dc:type
           rdf:resource="http://purl.org/dc/dcmitype/StillImage" />
        <dc:title />
      </cc:Work>
    </rdf:RDF>
  </metadata>
  <g
     inkscape:label="Layer 1"
     inkscape:groupmode="layer"
     id="layer1">
    <rect
       style="opacity:1;fill:#1d24ba;stroke:#1d24ba;stroke-width:4.867;stroke-linejoin:round;fill-opacity:1;stroke-opacity:1;stroke-miterlimit:4;stroke-dasharray:none"
       id="rect22"
       width="245.68451"
       height="245.68451"
       x="2.2678571"
       y="2.2678571"
       ry="24.190483" />
    <path
       d="m 99.7979,118.26705 c 0,2.51078 -2.03536,4.54614 -4.546145,4.54614 -2.510787,0 -4.546147,-2.03536 -4.546147,-4.54614 0,-2.51079 2.03536,-4.54615 4.546147,-4.54615 2.510785,0 4.546145,2.03536 4.546145,4.54615 z m 0,0"
       fill="#484a4c"
       id="path18"
       style="fill:#00001e;fill-opacity:1;stroke-width:0.352777" />
    <path
       d="m 99.7979,118.26705 c 0,2.51079 -2.035365,4.54615 -4.546147,4.54615 -2.510785,0 -4.546145,-2.03536 -4.546145,-4.54615 0,-2.51078 2.03536,-4.54614 4.546145,-4.54614 2.510782,0 4.546147,2.03536 4.546147,4.54614 z m 0,0"
       fill="#484a4c"
       id="path18-5"
       style="fill:#00001e;fill-opacity:1;stroke-width:0.352777" />
    <path
       d="m 147.80464,117.93132 c 0,2.51079 -2.03674,4.54615 -4.54752,4.54615 -2.51079,0 -4.54615,-2.03536 -4.54615,-4.54615 0,-2.51078 2.03536,-4.54614 4.54615,-4.54614 2.51078,0 4.54752,2.03536 4.54752,4.54614 z m 0,0"
       fill="#484a4c"
       id="path20"
       style="fill:#00001e;fill-opacity:1;stroke-width:0.352777" />
    <path
       d="m 161.34764,70.22223 c 0,0 -0.95773,-16.834107 15.0716,-24.101878 2.27927,-1.033529 4.69497,-1.732194 7.16028,-2.166275 l 23.04355,-4.059699 c 0,0 15.77302,32.691187 -10.12169,54.258853 l -5.54247,5.769839 -29.62229,-22.11612 z m 0,0"
       fill="#e57670"
       id="path2"
       style="fill:#f6f6ff;fill-opacity:1;stroke-width:0.352777" />
    <path
       d="m 175.97138,88.732033 14.98753,11.191037 5.5411,-5.769839 c 25.8947,-21.569045 10.12306,-54.258853 10.12306,-54.258853 0,0 -25.09406,20.886917 -30.65169,48.837655 z m 0,0"
       fill="#e7e7e7"
       id="path4"
       style="fill:#1d24ba;fill-opacity:1;stroke-width:0.352777" />
    <path
       d="m 196.50138,94.15461 -5.54109,5.76709 -6.8957,-5.146973 5.11803,-5.331627 c 17.55069,-14.615467 15.96181,-34.33932 13.11479,-45.534499 2.6224,-2.597601 4.32703,-4.015601 4.32703,-4.015601 0,0 15.76889,32.692565 -10.12306,54.26161 z m 0,0"
       fill="#cecece"
       id="path6"
       style="fill:#fefefe;fill-opacity:1;stroke-width:0.352777" />
    <path
       d="m 88.025012,70.22223 c 0,0 0.957739,-16.834107 -15.071595,-24.101878 -2.279274,-1.033529 -4.694973,-1.732194 -7.160284,-2.166275 L 42.749588,39.894378 c 0,0 -15.773019,32.691187 10.121687,54.258853 L 58.41512,99.92307 88.036037,77.80695 Z m 0,0"
       fill="#e57670"
       id="path8"
       style="fill:#f6f6ff;fill-opacity:1;stroke-width:0.352777" />
    <path
       d="M 73.402658,88.732033 58.413742,99.92307 52.872653,94.153231 C 26.977947,72.584186 42.749588,39.894378 42.749588,39.894378 c 0,0 25.095444,20.886917 30.65307,48.837655 z m 0,0"
       fill="#e7e7e7"
       id="path10"
       style="fill:#1d24ba;fill-opacity:1;stroke-width:0.352777" />
    <path
       d="M 52.871275,94.15461 58.413742,99.9217 65.308065,94.774727 60.190033,89.4431 C 42.639345,74.827633 44.228223,55.10378 47.075248,43.908601 44.452843,41.311 42.74821,39.893 42.74821,39.893 c 0,0 -15.768885,32.692565 10.123065,54.26161 z m 0,0"
       fill="#cecece"
       id="path12"
       style="fill:#fefefe;fill-opacity:1;stroke-width:0.352777" />
    <path
       d="M 196.23542,89.867537 C 179.36273,69.053655 151.9136,57.057837 124.89166,57.567711 97.759472,58.080341 70.550119,68.405976 53.151016,89.866156 33.081276,114.61985 27.890208,151.57744 43.507509,179.91127 c 13.208491,23.96407 43.071944,35.4073 69.315301,36.06049 27.14182,0.67524 59.46783,-0.28525 80.56421,-19.93883 11.50661,-10.71837 18.44089,-25.54468 20.73395,-40.9911 3.41202,-22.99119 -3.25768,-47.13164 -17.88555,-65.174293 z m 0,0"
       fill="#ffc1b8"
       id="path14"
       style="fill:#f6f6ff;fill-opacity:1;stroke-width:0.352777" />
    <path
       d="m 214.12235,155.0432 c -2.29305,15.44643 -9.22734,30.26998 -20.73533,40.99111 -21.09776,19.65082 -53.42376,20.61269 -80.56422,19.93745 -5.08771,-0.12678 -10.31186,-0.66008 -15.526349,-1.61093 0.938443,0.051 1.874132,0.091 2.807069,0.113 27.14045,0.67387 59.46645,-0.28387 80.56008,-19.93745 11.50799,-10.72113 18.44365,-25.5433 20.73533,-40.9911 3.41202,-22.99118 -3.25768,-47.1344 -17.88418,-65.175674 -12.99902,-16.037599 -32.27915,-26.838659 -52.80777,-30.715079 25.08717,1.171332 49.86567,12.892921 65.52706,32.214386 14.62787,18.039887 21.29757,42.183107 17.88831,65.174287 z m 0,0"
       fill="#ffb3a8"
       id="path16"
       style="fill:#808fff;fill-opacity:0.3333334;stroke-width:0.352777" />
    <path
       d="m 105.39766,118.26721 c 0,2.51078 -2.03537,4.54614 -4.54615,4.54614 -2.510785,0 -4.546145,-2.03536 -4.546145,-4.54614 0,-2.51078 2.03536,-4.54615 4.546145,-4.54615 2.51078,0 4.54615,2.03537 4.54615,4.54615 z m 0,0"
       fill="#484a4c"
       id="path18-6"
       style="fill:#00001e;fill-opacity:1;stroke-width:0.352777" />
    <path
       d="m 153.4044,117.93148 c 0,2.51078 -2.03674,4.54614 -4.54752,4.54614 -2.51079,0 -4.54615,-2.03536 -4.54615,-4.54614 0,-2.51079 2.03536,-4.54615 4.54615,-4.54615 2.51078,0 4.54752,2.03536 4.54752,4.54615 z m 0,0"
       fill="#484a4c"
       id="path20-9"
       style="fill:#00001e;fill-opacity:1;stroke-width:0.352777" />
    <path
       d="m 150.75002,155.22825 c -12.60078,-15.82401 -38.92267,-15.73719 -51.455925,0 -5.451517,6.84472 -7.14788,16.0376 -3.953592,24.18456 7.923717,20.20755 51.486247,20.09041 59.364487,0 3.19429,-8.14696 1.49655,-17.33984 -3.95497,-24.18456 z m 0,0"
       fill="#e57670"
       id="path22"
       style="fill:#1d24ba;fill-opacity:1;stroke-width:0.352777" />
    <path
       d="m 116.8591,167.53483 c -1.52825,0 -2.7671,1.2389 -2.7671,2.76718 0,1.52692 1.23885,2.76582 2.7671,2.76582 1.52824,0 2.7671,-1.2389 2.7671,-2.76582 0,-1.52828 -1.23886,-2.76718 -2.7671,-2.76718 z m 0,0"
       fill="#484a4c"
       id="path26"
       style="fill:#f6f6ff;fill-opacity:1;stroke-width:0.352783" />
    <path
       d="m 133.85599,167.87056 c -1.52687,0 -2.76572,1.23886 -2.76572,2.7671 0,1.52687 1.23885,2.76573 2.76572,2.76573 1.52824,0 2.7671,-1.23886 2.7671,-2.76573 0,-1.52824 -1.23886,-2.7671 -2.7671,-2.7671 z m 0,0"
       fill="#484a4c"
       id="path28"
       style="fill:#f6f6ff;fill-opacity:1;stroke-width:0.352777" />
    <g
       transform="matrix(0.0123423,0,0,-0.01093276,45.730499,162.91955)"
       fill="#000000"
       stroke="none"
       id="g883"
       style="fill:#1d24ba;fill-opacity:1">
      <path
         d="M 2335,5419 C 1975,5396 1538,5324 885,5180 786,5158 554,5111 370,5074 186,5037 30,5006 24,5004 9,5001 -5,4665 3,4535 16,4335 48,4262 192,4097 437,3816 477,3749 534,3515 662,2994 865,2403 1079,1931 c 133,-295 311,-475 636,-642 554,-286 1278,-380 2055,-269 475,69 861,268 1205,621 245,252 440,538 650,954 107,211 139,297 220,600 66,245 100,346 161,470 86,179 138,216 309,223 55,2 161,-1 235,-6 161,-11 191,-23 271,-109 105,-114 171,-251 259,-543 217,-719 484,-1209 851,-1565 174,-168 310,-265 518,-369 406,-204 854,-306 1346,-306 910,0 1659,377 2041,1027 136,230 208,434 354,1003 171,666 214,794 320,950 45,66 126,143 197,188 88,56 88,55 86,422 0,85 0,189 1,230 2,138 -44,177 -257,216 -171,32 -290,60 -572,138 -327,91 -379,103 -654,146 -683,108 -863,125 -1230,117 -488,-11 -826,-59 -1826,-257 -675,-134 -955,-181 -1278,-215 -248,-26 -554,-36 -773,-25 -392,19 -583,48 -1179,180 -550,122 -661,143 -1031,195 -786,109 -1239,140 -1659,114 z"
         id="path881"
         style="fill:#1d24ba;fill-opacity:1" />
    </g>
    <text
       xml:space="preserve"
       style="font-style:normal;font-weight:normal;font-size:10.5833px;line-height:1.25;font-family:sans-serif;fill:#000000;fill-opacity:1;stroke:none;stroke-width:0.264583"
       x="219.97789"
       y="219.18944"
       id="text857"><tspan
         sodipodi:role="line"
         id="tspan855"
         x="219.97789"
         y="219.18944"
         style="stroke-width:0.264583" /></text>
    <text
       xml:space="preserve"
       style="font-style:normal;font-weight:normal;font-size:16.8267px;line-height:1.25;font-family:sans-serif;fill:#1d24ba;fill-opacity:1;stroke:none;stroke-width:0.420667"
       x="115.65034"
       y="254.22887"
       id="text861"
       transform="scale(1.5899267,0.62895982)"><tspan
         sodipodi:role="line"
         id="tspan859"
         x="115.65034"
         y="254.22887"
         style="font-style:normal;font-variant:normal;font-weight:normal;font-stretch:normal;font-size:26.9227px;font-family:'Apple Chancery';-inkscape-font-specification:'Apple Chancery';fill:#1d24ba;fill-opacity:1;stroke-width:0.420667">$</tspan></text>
    <g
       id="g52"
       style="fill:#1d24ba;fill-opacity:1"
       transform="matrix(-1.6379796,0,0,0.8698621,188.09085,143.62885)">
      <path
         id="path46"
         d="m 53.619141,26.476562 c -0.04621,0.03572 -0.0827,0.0787 -0.125,0.117188 0.028,-0.0019 0.05598,-0.004 0.08398,-0.0059 0.01464,-0.036 0.02612,-0.07549 0.04102,-0.111329 z"
         style="fill:#1d24ba;fill-opacity:1" />
      <path
         class="st0"
         d="m 62.9,48.9 c -1.3,1.1 -1.4,2 -1.8,3.5 -0.3,1.5 -1.1,2.8 -1.9,4.1 -1.7,2.7 -3.9,5.1 -6.6,6.9 -5.3,3.5 -11.7,4.1 -17.8,5.1 -0.8,0.1 -0.8,1.3 -0.2,1.7 6.7,3.8 15.2,1.8 21.3,-2.2 3.1,-2 5.8,-4.7 8,-7.7 1.8,-2.6 4.9,-6.9 3.8,-10.1 C 67,48 64.6,47.5 62.9,48.9 Z"
         id="path50"
         style="fill:#1d24ba;fill-opacity:1" />
    </g>
    <text
       xml:space="preserve"
       id="text47"
       style="fill:black;fill-opacity:1;line-height:1.25;stroke:none;font-family:sans-serif;font-style:normal;font-weight:normal;font-size:10.58333333000000032px;white-space:pre;shape-inside:url(#rect49);" />
  </g>
</svg>
